<svg width="25" height="24" viewBox="0 0 25 24" fill="none" xmlns="http://www.w3.org/2000/svg">
<g clip-path="url(#clip0_552_2197)">
<path d="M15.5 20.25C14.7434 21.1659 13.7806 21.75 12.5 21.75C11.406 21.75 10.3568 21.3154 9.58318 20.5418C8.8096 19.7682 8.375 18.719 8.375 17.625C8.375 13.7353 5 15 5 9.75C5 7.76088 5.79018 5.85322 7.1967 4.4467C8.60322 3.04018 10.5109 2.25 12.5 2.25C14.4891 2.25 16.3968 3.04018 17.8033 4.4467C19.2098 5.85322 20 7.76088 20 9.75" stroke="#101216" stroke-width="1.5" stroke-linecap="round" stroke-linejoin="round"/>
<path d="M16.7994 15.75C16.6343 16.0361 16.3795 16.2598 16.0744 16.3863C15.7692 16.5127 15.4309 16.535 15.1118 16.4495C14.7928 16.364 14.5108 16.1756 14.3098 15.9135C14.1088 15.6514 13.9999 15.3303 14 15C14 12.75 16.25 12 16.25 9.75C16.25 8.75544 15.8549 7.80161 15.1517 7.09835C14.4484 6.39509 13.4946 6 12.5 6C11.5054 6 10.5516 6.39509 9.84835 7.09835C9.14509 7.80161 8.75 8.75544 8.75 9.75" stroke="#101216" stroke-width="1.5" stroke-linecap="round" stroke-linejoin="round"/>
</g>
<defs>
<clipPath id="clip0_552_2197">
<rect width="24" height="24" fill="white" transform="translate(0.5)"/>
</clipPath>
</defs>
</svg>
