<svg width="48" height="48" viewBox="0 0 48 48" fill="none" xmlns="http://www.w3.org/2000/svg">
<g clip-path="url(#clip0_552_2204)">
<path d="M32.5 12C32.5 7.30558 28.6944 3.5 24 3.5C19.3056 3.5 15.5 7.30558 15.5 12V24C15.5 28.6944 19.3056 32.5 24 32.5C28.6944 32.5 32.5 28.6944 32.5 24V12Z" fill="url(#paint0_linear_552_2204)" fill-opacity="0.12" stroke="url(#paint1_linear_552_2204)" stroke-width="2"/>
<path d="M27.75 18.25L20.25 18.25" stroke="url(#paint2_linear_552_2204)" stroke-width="2" stroke-linecap="round"/>
<path d="M27.75 22L20.25 22" stroke="url(#paint3_linear_552_2204)" stroke-width="2" stroke-linecap="round"/>
<path d="M24 37.5V45" stroke="url(#paint4_linear_552_2204)" stroke-width="2"/>
<mask id="path-5-outside-1_552_2204" maskUnits="userSpaceOnUse" x="8.5" y="24" width="31" height="16" fill="black">
<rect fill="white" x="8.5" y="24" width="31" height="16"/>
<path d="M37.5 24C37.5 27.5804 36.0777 31.0142 33.5459 33.5459C31.0142 36.0777 27.5804 37.5 24 37.5C20.4196 37.5 16.9858 36.0777 14.4541 33.5459C11.9223 31.0142 10.5 27.5804 10.5 24"/>
</mask>
<path d="M35.5 24C35.5 27.05 34.2884 29.9751 32.1317 32.1317L34.9602 34.9602C37.867 32.0533 39.5 28.1109 39.5 24L35.5 24ZM32.1317 32.1317C29.9751 34.2884 27.05 35.5 24 35.5V39.5C28.1109 39.5 32.0533 37.867 34.9602 34.9602L32.1317 32.1317ZM24 35.5C20.95 35.5 18.0249 34.2884 15.8683 32.1317L13.0398 34.9602C15.9467 37.867 19.8891 39.5 24 39.5V35.5ZM15.8683 32.1317C13.7116 29.9751 12.5 27.05 12.5 24H8.5C8.5 28.1109 10.133 32.0533 13.0398 34.9602L15.8683 32.1317Z" fill="url(#paint5_linear_552_2204)" mask="url(#path-5-outside-1_552_2204)"/>
</g>
<defs>
<linearGradient id="paint0_linear_552_2204" x1="16.5" y1="18" x2="31.5" y2="18" gradientUnits="userSpaceOnUse">
<stop stop-color="#FBED96"/>
<stop offset="1" stop-color="#ABECD6"/>
</linearGradient>
<linearGradient id="paint1_linear_552_2204" x1="16.5" y1="4.5" x2="39.4245" y2="17.2359" gradientUnits="userSpaceOnUse">
<stop stop-color="#FF84DD"/>
<stop offset="0.347516" stop-color="#90A2FF"/>
<stop offset="0.624467" stop-color="#D253E7"/>
<stop offset="1" stop-color="#FFC700"/>
</linearGradient>
<linearGradient id="paint2_linear_552_2204" x1="27.75" y1="18.25" x2="27.488" y2="20.2151" gradientUnits="userSpaceOnUse">
<stop stop-color="#FF84DD"/>
<stop offset="0.347516" stop-color="#90A2FF"/>
<stop offset="0.624467" stop-color="#D253E7"/>
<stop offset="1" stop-color="#FFC700"/>
</linearGradient>
<linearGradient id="paint3_linear_552_2204" x1="27.75" y1="22" x2="27.488" y2="23.9651" gradientUnits="userSpaceOnUse">
<stop stop-color="#FF84DD"/>
<stop offset="0.347516" stop-color="#90A2FF"/>
<stop offset="0.624467" stop-color="#D253E7"/>
<stop offset="1" stop-color="#FFC700"/>
</linearGradient>
<linearGradient id="paint4_linear_552_2204" x1="24" y1="37.5" x2="25.9651" y2="37.762" gradientUnits="userSpaceOnUse">
<stop stop-color="#FF84DD"/>
<stop offset="0.347516" stop-color="#90A2FF"/>
<stop offset="0.624467" stop-color="#D253E7"/>
<stop offset="1" stop-color="#FFC700"/>
</linearGradient>
<linearGradient id="paint5_linear_552_2204" x1="10.5" y1="24" x2="21.3" y2="45.6" gradientUnits="userSpaceOnUse">
<stop stop-color="#FF84DD"/>
<stop offset="0.347516" stop-color="#90A2FF"/>
<stop offset="0.624467" stop-color="#D253E7"/>
<stop offset="1" stop-color="#FFC700"/>
</linearGradient>
<clipPath id="clip0_552_2204">
<rect width="48" height="48" fill="white"/>
</clipPath>
</defs>
</svg>
